<?xml version="1.0" encoding="UTF-8" standalone="no"?><svg xmlns="http://www.w3.org/2000/svg" xmlns:xlink="http://www.w3.org/1999/xlink" contentScriptType="application/ecmascript" contentStyleType="text/css" height="522px" preserveAspectRatio="none" style="width:241px;height:522px;" version="1.1" viewBox="0 0 241 522" width="241px" zoomAndPan="magnify"><defs><filter height="300%" id="f4h66w0aclwe1" width="300%" x="-1" y="-1"><feGaussianBlur result="blurOut" stdDeviation="2.0"/><feColorMatrix in="blurOut" result="blurOut2" type="matrix" values="0 0 0 0 0 0 0 0 0 0 0 0 0 0 0 0 0 0 .4 0"/><feOffset dx="4.0" dy="4.0" in="blurOut2" result="blurOut3"/><feBlend in="SourceGraphic" in2="blurOut3" mode="normal"/></filter></defs><g><ellipse cx="130.5" cy="20" fill="#000000" filter="url(#f4h66w0aclwe1)" rx="10" ry="10" style="stroke: none; stroke-width: 1.0;"/><rect fill="#FEFECE" filter="url(#f4h66w0aclwe1)" height="33.9688" rx="12.5" ry="12.5" style="stroke: #A80036; stroke-width: 1.5;" width="100" x="80.5" y="50"/><text fill="#000000" font-family="sans-serif" font-size="12" lengthAdjust="spacingAndGlyphs" textLength="80" x="90.5" y="71.1387">receiving ZIP</text><rect fill="#FEFECE" filter="url(#f4h66w0aclwe1)" height="33.9688" rx="12.5" ry="12.5" style="stroke: #A80036; stroke-width: 1.5;" width="131" x="65" y="103.9688"/><text fill="#000000" font-family="sans-serif" font-size="12" lengthAdjust="spacingAndGlyphs" textLength="111" x="75" y="125.1074">save ZIP in server</text><rect fill="#FEFECE" filter="url(#f4h66w0aclwe1)" height="33.9688" rx="12.5" ry="12.5" style="stroke: #A80036; stroke-width: 1.5;" width="52" x="104.5" y="157.9375"/><text fill="#000000" font-family="sans-serif" font-size="12" lengthAdjust="spacingAndGlyphs" textLength="32" x="114.5" y="179.0762">unzip</text><polygon fill="#FEFECE" filter="url(#f4h66w0aclwe1)" points="95,211.9063,166,211.9063,178,223.9063,166,235.9063,95,235.9063,83,223.9063,95,211.9063" style="stroke: #A80036; stroke-width: 1.5;"/><text fill="#000000" font-family="sans-serif" font-size="11" lengthAdjust="spacingAndGlyphs" textLength="71" x="95" y="227.7144">check report</text><text fill="#000000" font-family="sans-serif" font-size="11" lengthAdjust="spacingAndGlyphs" textLength="13" x="70" y="221.312">ok</text><text fill="#000000" font-family="sans-serif" font-size="11" lengthAdjust="spacingAndGlyphs" textLength="13" x="178" y="221.312">ko</text><rect fill="#FEFECE" filter="url(#f4h66w0aclwe1)" height="33.9688" rx="12.5" ry="12.5" style="stroke: #A80036; stroke-width: 1.5;" width="121" x="10" y="245.9063"/><text fill="#000000" font-family="sans-serif" font-size="12" lengthAdjust="spacingAndGlyphs" textLength="101" x="20" y="267.0449">choose analyzer</text><rect fill="#FEFECE" filter="url(#f4h66w0aclwe1)" height="33.9688" rx="12.5" ry="12.5" style="stroke: #A80036; stroke-width: 1.5;" width="104" x="18.5" y="299.875"/><text fill="#000000" font-family="sans-serif" font-size="12" lengthAdjust="spacingAndGlyphs" textLength="84" x="28.5" y="321.0137">create report</text><rect fill="#FEFECE" filter="url(#f4h66w0aclwe1)" height="33.9688" rx="12.5" ry="12.5" style="stroke: #A80036; stroke-width: 1.5;" width="51" x="165" y="245.9063"/><text fill="#000000" font-family="sans-serif" font-size="12" lengthAdjust="spacingAndGlyphs" textLength="31" x="175" y="267.0449">error</text><rect fill="#FEFECE" filter="url(#f4h66w0aclwe1)" height="33.9688" rx="12.5" ry="12.5" style="stroke: #A80036; stroke-width: 1.5;" width="79" x="151" y="299.875"/><text fill="#000000" font-family="sans-serif" font-size="12" lengthAdjust="spacingAndGlyphs" textLength="59" x="161" y="321.0137">no report</text><polygon fill="#FEFECE" filter="url(#f4h66w0aclwe1)" points="130.5,339.8438,142.5,351.8438,130.5,363.8438,118.5,351.8438,130.5,339.8438" style="stroke: #A80036; stroke-width: 1.5;"/><rect fill="#FEFECE" filter="url(#f4h66w0aclwe1)" height="33.9688" rx="12.5" ry="12.5" style="stroke: #A80036; stroke-width: 1.5;" width="104" x="78.5" y="383.8438"/><text fill="#000000" font-family="sans-serif" font-size="12" lengthAdjust="spacingAndGlyphs" textLength="84" x="88.5" y="404.9824">create object</text><rect fill="#FEFECE" filter="url(#f4h66w0aclwe1)" height="33.9688" rx="12.5" ry="12.5" style="stroke: #A80036; stroke-width: 1.5;" width="106" x="77.5" y="437.8125"/><text fill="#000000" font-family="sans-serif" font-size="12" lengthAdjust="spacingAndGlyphs" textLength="86" x="87.5" y="458.9512">persist object</text><ellipse cx="130.5" cy="501.7813" fill="#FFFFFF" filter="url(#f4h66w0aclwe1)" rx="10" ry="10" style="stroke: #000000; stroke-width: 1.5;"/><line style="stroke: #000000; stroke-width: 2.5;" x1="124.3128" x2="136.6872" y1="495.5941" y2="507.9684"/><line style="stroke: #000000; stroke-width: 2.5;" x1="136.6872" x2="124.3128" y1="495.5941" y2="507.9684"/><line style="stroke: #A80036; stroke-width: 1.5;" x1="130.5" x2="130.5" y1="30" y2="50"/><polygon fill="#A80036" points="126.5,40,130.5,50,134.5,40,130.5,44" style="stroke: #A80036; stroke-width: 1.0;"/><line style="stroke: #A80036; stroke-width: 1.5;" x1="130.5" x2="130.5" y1="83.9688" y2="103.9688"/><polygon fill="#A80036" points="126.5,93.9688,130.5,103.9688,134.5,93.9688,130.5,97.9688" style="stroke: #A80036; stroke-width: 1.0;"/><line style="stroke: #A80036; stroke-width: 1.5;" x1="130.5" x2="130.5" y1="137.9375" y2="157.9375"/><polygon fill="#A80036" points="126.5,147.9375,130.5,157.9375,134.5,147.9375,130.5,151.9375" style="stroke: #A80036; stroke-width: 1.0;"/><line style="stroke: #A80036; stroke-width: 1.5;" x1="70.5" x2="70.5" y1="279.875" y2="299.875"/><polygon fill="#A80036" points="66.5,289.875,70.5,299.875,74.5,289.875,70.5,293.875" style="stroke: #A80036; stroke-width: 1.0;"/><line style="stroke: #A80036; stroke-width: 1.5;" x1="190.5" x2="190.5" y1="279.875" y2="299.875"/><polygon fill="#A80036" points="186.5,289.875,190.5,299.875,194.5,289.875,190.5,293.875" style="stroke: #A80036; stroke-width: 1.0;"/><line style="stroke: #A80036; stroke-width: 1.5;" x1="83" x2="70.5" y1="223.9063" y2="223.9063"/><line style="stroke: #A80036; stroke-width: 1.5;" x1="70.5" x2="70.5" y1="223.9063" y2="245.9063"/><polygon fill="#A80036" points="66.5,235.9063,70.5,245.9063,74.5,235.9063,70.5,239.9063" style="stroke: #A80036; stroke-width: 1.0;"/><line style="stroke: #A80036; stroke-width: 1.5;" x1="178" x2="190.5" y1="223.9063" y2="223.9063"/><line style="stroke: #A80036; stroke-width: 1.5;" x1="190.5" x2="190.5" y1="223.9063" y2="245.9063"/><polygon fill="#A80036" points="186.5,235.9063,190.5,245.9063,194.5,235.9063,190.5,239.9063" style="stroke: #A80036; stroke-width: 1.0;"/><line style="stroke: #A80036; stroke-width: 1.5;" x1="70.5" x2="70.5" y1="333.8438" y2="351.8438"/><line style="stroke: #A80036; stroke-width: 1.5;" x1="70.5" x2="118.5" y1="351.8438" y2="351.8438"/><polygon fill="#A80036" points="108.5,347.8438,118.5,351.8438,108.5,355.8438,112.5,351.8438" style="stroke: #A80036; stroke-width: 1.0;"/><line style="stroke: #A80036; stroke-width: 1.5;" x1="190.5" x2="190.5" y1="333.8438" y2="351.8438"/><line style="stroke: #A80036; stroke-width: 1.5;" x1="190.5" x2="142.5" y1="351.8438" y2="351.8438"/><polygon fill="#A80036" points="152.5,347.8438,142.5,351.8438,152.5,355.8438,148.5,351.8438" style="stroke: #A80036; stroke-width: 1.0;"/><line style="stroke: #A80036; stroke-width: 1.5;" x1="130.5" x2="130.5" y1="191.9063" y2="211.9063"/><polygon fill="#A80036" points="126.5,201.9063,130.5,211.9063,134.5,201.9063,130.5,205.9063" style="stroke: #A80036; stroke-width: 1.0;"/><line style="stroke: #A80036; stroke-width: 1.5;" x1="130.5" x2="130.5" y1="363.8438" y2="383.8438"/><polygon fill="#A80036" points="126.5,373.8438,130.5,383.8438,134.5,373.8438,130.5,377.8438" style="stroke: #A80036; stroke-width: 1.0;"/><line style="stroke: #A80036; stroke-width: 1.5;" x1="130.5" x2="130.5" y1="417.8125" y2="437.8125"/><polygon fill="#A80036" points="126.5,427.8125,130.5,437.8125,134.5,427.8125,130.5,431.8125" style="stroke: #A80036; stroke-width: 1.0;"/><line style="stroke: #A80036; stroke-width: 1.5;" x1="130.5" x2="130.5" y1="471.7813" y2="491.7813"/><polygon fill="#A80036" points="126.5,481.7813,130.5,491.7813,134.5,481.7813,130.5,485.7813" style="stroke: #A80036; stroke-width: 1.0;"/><!--MD5=[1c973ce3daa95a139de84fb5958d47c9]
@startuml
start
:receiving ZIP;
:save ZIP in server;
:unzip;
if (check report) then (ok)
  :choose analyzer;
  :create report;
else (ko)
  :error;
  :no report;
endif
:create object;
:persist object;
end
@enduml

PlantUML version 1.2020.01beta16(Unknown compile time)
(GPL source distribution)
Java Runtime: Java(TM) SE Runtime Environment
JVM: Java HotSpot(TM) 64-Bit Server VM
Java Version: 1.7.0_25-b15
Operating System: Linux
Default Encoding: UTF-8
Language: en
Country: US
--></g></svg>