<?xml version="1.0" encoding="UTF-8" standalone="no"?><svg xmlns="http://www.w3.org/2000/svg" xmlns:xlink="http://www.w3.org/1999/xlink" contentScriptType="application/ecmascript" contentStyleType="text/css" height="459px" preserveAspectRatio="none" style="width:824px;height:459px;" version="1.1" viewBox="0 0 824 459" width="824px" zoomAndPan="magnify"><defs><filter height="300%" id="f1chj20ht9h1ps" width="300%" x="-1" y="-1"><feGaussianBlur result="blurOut" stdDeviation="2.0"/><feColorMatrix in="blurOut" result="blurOut2" type="matrix" values="0 0 0 0 0 0 0 0 0 0 0 0 0 0 0 0 0 0 .4 0"/><feOffset dx="4.0" dy="4.0" in="blurOut2" result="blurOut3"/><feBlend in="SourceGraphic" in2="blurOut3" mode="normal"/></filter></defs><g><rect fill="#FFFFFF" filter="url(#f1chj20ht9h1ps)" height="347.3281" style="stroke: #000000; stroke-width: 2.0;" width="801" x="12" y="55.2969"/><rect fill="#FFFFFF" filter="url(#f1chj20ht9h1ps)" height="277.0625" style="stroke: #000000; stroke-width: 2.0;" width="528.5" x="274.5" y="118.5625"/><rect fill="#FFFFFF" filter="url(#f1chj20ht9h1ps)" height="119.5313" style="stroke: #000000; stroke-width: 2.0;" width="508.5" x="284.5" y="269.0938"/><rect fill="#FFFFFF" filter="url(#f1chj20ht9h1ps)" height="59.2656" style="stroke: #000000; stroke-width: 2.0;" width="350" x="294.5" y="293.2266"/><line style="stroke: #A80036; stroke-width: 1.0; stroke-dasharray: 5.0,5.0;" x1="228" x2="228" y1="38.2969" y2="419.625"/><line style="stroke: #A80036; stroke-width: 1.0; stroke-dasharray: 5.0,5.0;" x1="327.5" x2="327.5" y1="38.2969" y2="419.625"/><line style="stroke: #A80036; stroke-width: 1.0; stroke-dasharray: 5.0,5.0;" x1="763" x2="763" y1="38.2969" y2="419.625"/><rect fill="#FEFECE" filter="url(#f1chj20ht9h1ps)" height="30.2969" style="stroke: #A80036; stroke-width: 1.5;" width="27" x="213" y="3"/><text fill="#000000" font-family="sans-serif" font-size="14" lengthAdjust="spacingAndGlyphs" textLength="13" x="220" y="22.9951">CI</text><rect fill="#FEFECE" filter="url(#f1chj20ht9h1ps)" height="30.2969" style="stroke: #A80036; stroke-width: 1.5;" width="27" x="213" y="418.625"/><text fill="#000000" font-family="sans-serif" font-size="14" lengthAdjust="spacingAndGlyphs" textLength="13" x="220" y="438.6201">CI</text><rect fill="#FEFECE" filter="url(#f1chj20ht9h1ps)" height="30.2969" style="stroke: #A80036; stroke-width: 1.5;" width="42" x="304.5" y="3"/><text fill="#000000" font-family="sans-serif" font-size="14" lengthAdjust="spacingAndGlyphs" textLength="28" x="311.5" y="22.9951">ARA</text><rect fill="#FEFECE" filter="url(#f1chj20ht9h1ps)" height="30.2969" style="stroke: #A80036; stroke-width: 1.5;" width="42" x="304.5" y="418.625"/><text fill="#000000" font-family="sans-serif" font-size="14" lengthAdjust="spacingAndGlyphs" textLength="28" x="311.5" y="438.6201">ARA</text><rect fill="#FEFECE" filter="url(#f1chj20ht9h1ps)" height="30.2969" style="stroke: #A80036; stroke-width: 1.5;" width="35" x="744" y="3"/><text fill="#000000" font-family="sans-serif" font-size="14" lengthAdjust="spacingAndGlyphs" textLength="21" x="751" y="22.9951">DB</text><rect fill="#FEFECE" filter="url(#f1chj20ht9h1ps)" height="30.2969" style="stroke: #A80036; stroke-width: 1.5;" width="35" x="744" y="418.625"/><text fill="#000000" font-family="sans-serif" font-size="14" lengthAdjust="spacingAndGlyphs" textLength="21" x="751" y="438.6201">DB</text><path d="M12,55.2969 L299,55.2969 L299,62.2969 L289,72.2969 L12,72.2969 L12,55.2969 " fill="#EEEEEE" style="stroke: #000000; stroke-width: 1.0;"/><rect fill="none" height="347.3281" style="stroke: #000000; stroke-width: 2.0;" width="801" x="12" y="55.2969"/><text fill="#000000" font-family="sans-serif" font-size="13" font-weight="bold" lengthAdjust="spacingAndGlyphs" textLength="242" x="27" y="68.3638">upload zip (ExecutionRessource)</text><polygon fill="#A80036" points="315.5,94.5625,325.5,98.5625,315.5,102.5625,319.5,98.5625" style="stroke: #A80036; stroke-width: 1.0;"/><line style="stroke: #A80036; stroke-width: 1.0;" x1="228.5" x2="321.5" y1="98.5625" y2="98.5625"/><text fill="#000000" font-family="sans-serif" font-size="13" lengthAdjust="spacingAndGlyphs" textLength="75" x="235.5" y="93.4966">sending ZIP</text><path d="M22,77.4297 L22,102.4297 L219,102.4297 L219,87.4297 L209,77.4297 L22,77.4297 " fill="#FBFB77" filter="url(#f1chj20ht9h1ps)" style="stroke: #A80036; stroke-width: 1.0;"/><path d="M209,77.4297 L209,87.4297 L219,87.4297 L209,77.4297 " fill="#FBFB77" style="stroke: #A80036; stroke-width: 1.0;"/><text fill="#000000" font-family="sans-serif" font-size="13" lengthAdjust="spacingAndGlyphs" textLength="176" x="28" y="94.4966">calling the resource /upload</text><path d="M274.5,118.5625 L581.5,118.5625 L581.5,125.5625 L571.5,135.5625 L274.5,135.5625 L274.5,118.5625 " fill="#EEEEEE" style="stroke: #000000; stroke-width: 1.0;"/><rect fill="none" height="277.0625" style="stroke: #000000; stroke-width: 2.0;" width="528.5" x="274.5" y="118.5625"/><text fill="#000000" font-family="sans-serif" font-size="13" font-weight="bold" lengthAdjust="spacingAndGlyphs" textLength="262" x="289.5" y="131.6294">analyzing report (ExecutionService)</text><line style="stroke: #A80036; stroke-width: 1.0;" x1="327.5" x2="369.5" y1="156.8281" y2="156.8281"/><line style="stroke: #A80036; stroke-width: 1.0;" x1="369.5" x2="369.5" y1="156.8281" y2="169.8281"/><line style="stroke: #A80036; stroke-width: 1.0;" x1="328.5" x2="369.5" y1="169.8281" y2="169.8281"/><polygon fill="#A80036" points="338.5,165.8281,328.5,169.8281,338.5,173.8281,334.5,169.8281" style="stroke: #A80036; stroke-width: 1.0;"/><text fill="#000000" font-family="sans-serif" font-size="13" lengthAdjust="spacingAndGlyphs" textLength="249" x="334.5" y="151.7622">get report details (executions) from zip</text><line style="stroke: #A80036; stroke-width: 1.0;" x1="327.5" x2="369.5" y1="198.9609" y2="198.9609"/><line style="stroke: #A80036; stroke-width: 1.0;" x1="369.5" x2="369.5" y1="198.9609" y2="211.9609"/><line style="stroke: #A80036; stroke-width: 1.0;" x1="328.5" x2="369.5" y1="211.9609" y2="211.9609"/><polygon fill="#A80036" points="338.5,207.9609,328.5,211.9609,338.5,215.9609,334.5,211.9609" style="stroke: #A80036; stroke-width: 1.0;"/><text fill="#000000" font-family="sans-serif" font-size="13" lengthAdjust="spacingAndGlyphs" textLength="286" x="334.5" y="193.895">save details in the server ARA is deployed on</text><line style="stroke: #A80036; stroke-width: 1.0;" x1="327.5" x2="369.5" y1="241.0938" y2="241.0938"/><line style="stroke: #A80036; stroke-width: 1.0;" x1="369.5" x2="369.5" y1="241.0938" y2="254.0938"/><line style="stroke: #A80036; stroke-width: 1.0;" x1="328.5" x2="369.5" y1="254.0938" y2="254.0938"/><polygon fill="#A80036" points="338.5,250.0938,328.5,254.0938,338.5,258.0938,334.5,254.0938" style="stroke: #A80036; stroke-width: 1.0;"/><text fill="#000000" font-family="sans-serif" font-size="13" lengthAdjust="spacingAndGlyphs" textLength="422" x="334.5" y="236.0278">creating indexed builds for each executions extracted from the zip</text><path d="M284.5,269.0938 L643.5,269.0938 L643.5,276.0938 L633.5,286.0938 L284.5,286.0938 L284.5,269.0938 " fill="#EEEEEE" style="stroke: #000000; stroke-width: 1.0;"/><rect fill="none" height="119.5313" style="stroke: #000000; stroke-width: 2.0;" width="508.5" x="284.5" y="269.0938"/><text fill="#000000" font-family="sans-serif" font-size="13" font-weight="bold" lengthAdjust="spacingAndGlyphs" textLength="314" x="299.5" y="282.1606">searching index (ExecutionCrawlerService)</text><path d="M294.5,293.2266 L639.5,293.2266 L639.5,300.2266 L629.5,310.2266 L294.5,310.2266 L294.5,293.2266 " fill="#EEEEEE" style="stroke: #000000; stroke-width: 1.0;"/><rect fill="none" height="59.2656" style="stroke: #000000; stroke-width: 2.0;" width="350" x="294.5" y="293.2266"/><text fill="#000000" font-family="sans-serif" font-size="13" font-weight="bold" lengthAdjust="spacingAndGlyphs" textLength="300" x="309.5" y="306.2935">fetching the executions (FetcherService)</text><line style="stroke: #A80036; stroke-width: 1.0;" x1="327.5" x2="369.5" y1="331.4922" y2="331.4922"/><line style="stroke: #A80036; stroke-width: 1.0;" x1="369.5" x2="369.5" y1="331.4922" y2="344.4922"/><line style="stroke: #A80036; stroke-width: 1.0;" x1="328.5" x2="369.5" y1="344.4922" y2="344.4922"/><polygon fill="#A80036" points="338.5,340.4922,328.5,344.4922,338.5,348.4922,334.5,344.4922" style="stroke: #A80036; stroke-width: 1.0;"/><text fill="#000000" font-family="sans-serif" font-size="13" lengthAdjust="spacingAndGlyphs" textLength="193" x="334.5" y="326.4263">getting the executions reports</text><polygon fill="#A80036" points="751.5,376.625,761.5,380.625,751.5,384.625,755.5,380.625" style="stroke: #A80036; stroke-width: 1.0;"/><line style="stroke: #A80036; stroke-width: 1.0;" x1="327.5" x2="757.5" y1="380.625" y2="380.625"/><text fill="#000000" font-family="sans-serif" font-size="13" lengthAdjust="spacingAndGlyphs" textLength="116" x="334.5" y="375.5591">persist executions</text><!--MD5=[4930a4ba4929cc0f75f61943c863d240]
@startuml
group upload zip (ExecutionRessource)
  CI -> ARA : sending ZIP
  note left: calling the resource /upload
  group analyzing report (ExecutionService)
    ARA -> ARA : get report details (executions) from zip
    ARA -> ARA : save details in the server ARA is deployed on
    ARA -> ARA: creating indexed builds for each executions extracted from the zip
    group searching index (ExecutionCrawlerService)
      group fetching the executions (FetcherService)
        ARA -> ARA: getting the executions reports
      end
      ARA -> DB: persist executions
    end
  end
end
@enduml

PlantUML version 1.2020.01beta16(Unknown compile time)
(GPL source distribution)
Java Runtime: Java(TM) SE Runtime Environment
JVM: Java HotSpot(TM) 64-Bit Server VM
Java Version: 1.7.0_25-b15
Operating System: Linux
Default Encoding: UTF-8
Language: en
Country: US
--></g></svg>