<?xml version="1.0" encoding="UTF-8"?><svg id="Layer_1" xmlns="http://www.w3.org/2000/svg" viewBox="0 0 46.03 46.03"><defs><style>.cls-1{fill:#e42831;}.cls-1,.cls-2{stroke:#fff;stroke-miterlimit:10;stroke-width:.5px;}.cls-1,.cls-2,.cls-3{fill-rule:evenodd;}.cls-2,.cls-3{fill:#e20e17;}.cls-4{fill:#fff;}</style></defs><g><path id="path4585" class="cls-1" d="M34.39,3.33C6.1,4.39,12.28,13.37,23.01,23.01h0c8.12,.01,15.63,4.35,19.69,11.39,2.01-3.46,3.07-7.39,3.08-11.39-.01-8.12-4.35-15.62-11.38-19.69h0Z"/><path id="path4587" class="cls-2" d="M23.01,23.01c-3.33,1.68-13.39-1.76-8.54,14.76,1.3,.75,2.58,1.19,3.97,1.51,3.42,.79,6.99,.77,10.44,.1,6.29-1.22,10.95-3.63,12.96-4.8-1.06-1.94-2.79-4.77-6.99-7.55-.46-.3,.45,.32,0,0-1.22-.87-4.94-3.13-11.83-4.03Z"/><path id="path4589" class="cls-2" d="M23.01,.25c-12.57,0-22.76,10.19-22.76,22.76v22.76c12.57,0,22.76-10.19,22.76-22.76,.01-8.12,4.35-15.63,11.39-19.69C30.94,1.32,27.01,.26,23.01,.25Z"/></g><circle id="circle4591" class="cls-4" cx="14.62" cy="14.1" r="7.11"/><path id="circle4593" class="cls-3" d="M14.73,15.21c-1.71,0-3.62-.93-3.09-1.72,.73-1.08,1.37,.33,3.08,.33s2.54-1.36,3.1-.33c.45,.83-1.38,1.72-3.09,1.72Z"/></svg>